# File created by Blade
# Date/Time:  Tue Apr 07 21:36:59 2015
# Frame Rate: 120.000 fps
#------------------------------------------------------
:FULLY-SPECIFIED
:DEGREES
312
root 6.061437 32.804935 10.663574 122.096002 -88.551510 -102.859270
Spine -2.422238 -5.202973 0.128856
Head 2.999592 -4.310902 3.078329
LeftShoulder -4.944747 36.876176 16.245836
LeftArm 69.233342 19.615123 -66.850864
LeftForeArm -6.303212 -0.000000 15.831334
LeftHand 16.700006 -0.000000 10.738891
LeftHandThumb1 -26.253704 0.000000 33.147579
RightShoulder 2.604402 1.222057 -18.208799
RightArm 21.788454 -14.290088 89.474839
RightForeArm -1.633162 0.000000 23.203955
RightHand 4.712506 -0.000000 -1.545693
RightHandThumb1 -24.326973 -0.000000 -32.862282
LeftUpLeg -30.926054 -3.855023 2.881040
LeftLeg 16.015832 -0.000000 -0.000000
LeftFoot -7.048218 7.518975 -21.384627
LeftToeBase -6.005269 -0.000000 0.000000
RightUpLeg -30.497741 6.413385 -1.150346
RightLeg 13.826658 -0.000000 -0.000000
RightFoot -6.514536 -7.018347 12.547783
RightToeBase -4.200244 -0.000000 0.000000
313
root 6.050740 32.806658 10.697858 133.683376 -88.515616 -114.366188
Spine -2.393173 -5.180046 -0.069681
Head 2.640202 -4.147346 3.170201
LeftShoulder -4.913136 36.902493 16.416429
LeftArm 69.091492 19.698395 -66.716144
LeftForeArm -6.327283 -0.000000 15.869258
LeftHand 16.692189 -0.000000 10.850869
LeftHandThumb1 -26.253704 0.000000 33.147579
RightShoulder 2.608015 1.229251 -18.167683
RightArm 21.628617 -14.506911 89.645398
RightForeArm -1.919475 -0.000000 23.157475
RightHand 4.745921 0.000000 -1.869336
RightHandThumb1 -24.326973 -0.000000 -32.862282
LeftUpLeg -30.771845 -3.550427 2.635783
LeftLeg 15.631238 -0.000000 -0.000000
LeftFoot -6.911444 7.536929 -21.087268
LeftToeBase -6.024914 -0.000000 0.000000
RightUpLeg -31.159862 6.654992 -1.376498
RightLeg 14.958261 -0.000000 -0.000000
RightFoot -6.708996 -6.943768 12.771839
RightToeBase -4.401357 -0.000000 0.000000
314
root 6.040803 32.805161 10.730864 143.110746 -88.409420 -123.706075
Spine -2.373100 -5.185304 -0.214461
Head 2.267793 -3.948704 3.226919
LeftShoulder -4.897804 36.968937 16.542031
LeftArm 68.990293 19.750302 -66.528575
LeftForeArm -6.437533 0.000000 15.886185
LeftHand 16.998231 -0.000000 10.600379
LeftHandThumb1 -26.253704 0.000000 33.147579
RightShoulder 2.612039 1.164729 -18.151662
RightArm 21.537574 -14.857334 89.742317
RightForeArm -2.013632 -0.000000 23.130592
RightHand 4.683890 -0.000000 -1.866513
RightHandThumb1 -24.326973 -0.000000 -32.862282
LeftUpLeg -30.657684 -3.204054 2.406350
LeftLeg 15.301844 -0.000000 -0.000000
LeftFoot -6.789252 7.495993 -20.760232
LeftToeBase -6.064228 -0.000000 0.000000
RightUpLeg -31.843972 6.962416 -1.605789
RightLeg 16.109269 -0.000000 -0.000000
RightFoot -6.956397 -6.905416 13.123018
RightToeBase -4.508891 -0.000000 0.000000
315
root 6.032875 32.800128 10.763080 150.558741 -88.298745 -131.085813
Spine -2.324783 -5.216841 -0.351369
Head 1.883566 -3.756306 3.250577
LeftShoulder -4.924512 37.152099 16.621056
LeftArm 69.085641 19.789190 -66.169498
LeftForeArm -6.434141 -0.000000 15.842336
LeftHand 16.919130 -0.000000 10.658966
LeftHandThumb1 -26.253704 0.000000 33.147579
RightShoulder 2.628575 1.132393 -18.133945
RightArm 21.419320 -15.010328 89.920599
RightForeArm -2.290909 -0.000000 22.989773
RightHand 4.904688 -0.000000 -2.576100
RightHandThumb1 -24.326973 -0.000000 -32.862282
LeftUpLeg -30.570442 -2.799656 2.122219
LeftLeg 15.051760 -0.000000 -0.000000
LeftFoot -6.690836 7.400604 -20.326413
LeftToeBase -6.100408 -0.000000 0.000000
RightUpLeg -32.518470 7.149839 -1.795870
RightLeg 17.291505 -0.000000 -0.000000
RightFoot -7.259514 -6.769893 13.480043
RightToeBase -4.405549 -0.000000 0.000000
316
root 6.029608 32.794896 10.801130 157.900062 -88.223521 -138.320064
Spine -2.304147 -5.308569 -0.515156
Head 1.476367 -3.533727 3.250743
LeftShoulder -4.968677 37.242814 16.678265
LeftArm 69.088202 19.878276 -65.799625
LeftForeArm -6.403418 -0.000000 15.813845
LeftHand 16.548646 0.000000 11.241029
LeftHandThumb1 -26.253704 0.000000 33.147579
RightShoulder 2.644440 1.072406 -18.107447
RightArm 21.344669 -15.243963 90.019606
RightForeArm -2.459251 -0.000000 22.863964
RightHand 4.888325 -0.000000 -2.331647
RightHandThumb1 -24.326973 -0.000000 -32.862282
LeftUpLeg -30.414960 -2.853416 1.974613
LeftLeg 14.538864 -0.000000 -0.000000
LeftFoot -6.643878 7.655981 -20.155429
LeftToeBase -6.121451 -0.000000 0.000000
RightUpLeg -33.243882 7.262067 -2.045293
RightLeg 18.470911 -0.000000 -0.000000
RightFoot -7.507656 -6.596983 13.871804
RightToeBase -4.497136 -0.000000 0.000000
317
root 6.027681 32.788533 10.835071 163.005044 -88.133320 -143.314346
Spine -2.278883 -5.423685 -0.606292
Head 1.041319 -3.346486 3.160100
LeftShoulder -5.011411 37.293420 16.668518
LeftArm 69.063899 19.941976 -65.407267
LeftForeArm -6.337038 -0.000000 15.742653
LeftHand 16.757554 -0.000000 11.478456
LeftHandThumb1 -26.253704 0.000000 33.147579
RightShoulder 2.653232 1.038391 -18.094965
RightArm 21.271822 -15.550110 90.096097
RightForeArm -2.532532 -0.000000 22.670502
RightHand 4.950088 0.000000 -2.452805
RightHandThumb1 -24.326973 -0.000000 -32.862282
LeftUpLeg -30.320572 -2.797923 1.817831
LeftLeg 14.139178 -0.000000 -0.000000
LeftFoot -6.580973 7.788973 -19.920552
LeftToeBase -6.222652 -0.000000 0.000000
RightUpLeg -33.936699 7.430853 -2.280960
RightLeg 19.560194 -0.000000 -0.000000
RightFoot -7.714539 -6.491318 14.275167
RightToeBase -4.558787 -0.000000 0.000000
318
root 6.026699 32.781897 10.865057 166.927397 -88.045101 -147.121495
Spine -2.252892 -5.521433 -0.684837
Head 0.605579 -3.161575 3.097447
LeftShoulder -5.081799 37.430526 16.621714
LeftArm 69.195484 19.974358 -64.932490
LeftForeArm -6.228362 0.000000 15.577531
LeftHand 16.646934 0.000000 11.502983
LeftHandThumb1 -26.253704 0.000000 33.147579
RightShoulder 2.628077 0.984244 -18.042802
RightArm 21.195976 -15.743543 90.166023
RightForeArm -2.736954 -0.000000 22.454579
RightHand 5.045178 -0.000000 -2.565956
RightHandThumb1 -24.326973 -0.000000 -32.862282
LeftUpLeg -30.269441 -2.741386 1.676711
LeftLeg 13.821286 -0.000000 -0.000000
LeftFoot -6.526254 7.910333 -19.749052
LeftToeBase -6.387431 -0.000000 0.000000
RightUpLeg -34.612717 7.556699 -2.485732
RightLeg 20.604793 -0.000000 -0.000000
RightFoot -7.875229 -6.359693 14.633224
RightToeBase -4.750497 -0.000000 0.000000
319
root 6.026443 32.775901 10.892635 169.607378 -87.948561 -149.682701
Spine -2.227837 -5.618848 -0.719430
Head 0.186794 -2.960430 3.005836
LeftShoulder -5.140002 37.558537 16.539861
LeftArm 69.310747 19.999532 -64.412059
LeftForeArm -6.066360 -0.000000 15.413164
LeftHand 16.557561 -0.000000 11.892786
LeftHandThumb1 -26.253704 0.000000 33.147579
RightShoulder 2.590668 0.890051 -17.967256
RightArm 21.154980 -16.040819 90.140504
RightForeArm -2.828625 -0.000000 22.274010
RightHand 5.128648 -0.000000 -2.505363
RightHandThumb1 -24.326973 -0.000000 -32.862282
LeftUpLeg -30.228668 -2.656314 1.558067
LeftLeg 13.530790 -0.000000 -0.000000
LeftFoot -6.486188 8.041097 -19.563112
LeftToeBase -6.451705 -0.000000 0.000000
RightUpLeg -35.266648 7.697983 -2.664074
RightLeg 21.576624 -0.000000 -0.000000
RightFoot -7.954311 -6.263834 14.944919
RightToeBase -5.018554 -0.000000 0.000000
320
root 6.028875 32.768534 10.922777 173.130253 -87.908705 -153.076049
Spine -2.213133 -5.772310 -0.798917
Head -0.226169 -2.766458 2.900288
LeftShoulder -5.215030 37.655684 16.450049
LeftArm 69.417017 20.034722 -63.915433
LeftForeArm -5.890153 -0.000000 15.195472
LeftHand 16.527460 -0.000000 12.045709
LeftHandThumb1 -26.253704 0.000000 33.147579
RightShoulder 2.587349 0.787303 -17.901190
RightArm 21.125646 -16.284963 90.129282
RightForeArm -3.150364 -0.000000 22.027094
RightHand 5.279510 -0.000000 -2.946317
RightHandThumb1 -24.326973 -0.000000 -32.862282
LeftUpLeg -30.205834 -2.629270 1.392840
LeftLeg 13.218462 -0.000000 -0.000000
LeftFoot -6.376726 8.074599 -19.565528
LeftToeBase -6.836343 -0.000000 0.000000
RightUpLeg -35.958240 7.673847 -2.835235
RightLeg 22.622115 -0.000000 -0.000000
RightFoot -8.110717 -6.091409 15.165809
RightToeBase -5.098650 -0.000000 0.000000
321
root 6.031225 32.763412 10.948912 175.452186 -87.889981 -155.253314
Spine -2.209393 -5.925695 -0.833074
Head -0.646788 -2.614795 2.787345
LeftShoulder -5.271064 37.779518 16.347903
LeftArm 69.567711 20.065750 -63.406440
LeftForeArm -5.554361 0.000000 14.919864
LeftHand 16.267003 -0.000000 12.105960
LeftHandThumb1 -26.253704 0.000000 33.147579
RightShoulder 2.559968 0.701677 -17.799237
RightArm 21.060384 -16.555005 90.075947
RightForeArm -3.009784 0.000000 21.781762
RightHand 5.331552 -0.000000 -2.468743
RightHandThumb1 -24.326973 -0.000000 -32.862282
LeftUpLeg -30.202268 -2.603695 1.267729
LeftLeg 12.907678 -0.000000 -0.000000
LeftFoot -6.288672 8.094105 -19.343531
LeftToeBase -6.885074 -0.000000 0.000000
RightUpLeg -36.596813 7.660680 -2.986233
RightLeg 23.525703 -0.000000 -0.000000
RightFoot -8.238745 -5.967678 15.248965
RightToeBase -5.178063 -0.000000 0.000000
322
root 6.035166 32.759895 10.970924 177.551991 -87.892799 -157.215002
Spine -2.190688 -6.080929 -0.876083
Head -1.064805 -2.475262 2.700955
LeftShoulder -5.325816 37.829243 16.254371
LeftArm 69.719035 20.139441 -62.824570
LeftForeArm -5.419031 -0.000000 14.594463
LeftHand 16.233893 -0.000000 11.926232
LeftHandThumb1 -26.253704 0.000000 33.147579
RightShoulder 2.504423 0.572696 -17.671005
RightArm 21.032710 -16.833851 89.979263
RightForeArm -3.146561 -0.000000 21.542942
RightHand 5.408672 -0.000000 -2.705398
RightHandThumb1 -24.326973 -0.000000 -32.862282
LeftUpLeg -30.199918 -2.553744 1.138806
LeftLeg 12.606491 -0.000000 -0.000000
LeftFoot -6.209572 8.057918 -19.202779
LeftToeBase -6.797483 -0.000000 0.000000
RightUpLeg -37.173938 7.678914 -3.158935
RightLeg 24.291436 -0.000000 -0.000000
RightFoot -8.380463 -5.873764 15.336733
RightToeBase -5.007423 -0.000000 0.000000
323
root 6.037401 32.758455 10.990728 179.569993 -87.916029 -159.110911
Spine -2.155276 -6.245631 -0.917215
Head -1.468408 -2.332006 2.623703
LeftShoulder -5.399309 37.947274 16.132638
LeftArm 69.944894 20.210417 -62.191658
LeftForeArm -5.104026 -0.000000 14.273117
LeftHand 16.063854 -0.000000 11.945502
LeftHandThumb1 -26.253704 0.000000 33.147579
RightShoulder 2.482356 0.421399 -17.523402
RightArm 21.012422 -17.036989 89.891323
RightForeArm -3.051274 -0.000000 21.251911
RightHand 5.551734 -0.000000 -2.511412
RightHandThumb1 -24.326973 -0.000000 -32.862282
LeftUpLeg -30.176278 -2.520452 1.016607
LeftLeg 12.296058 -0.000000 -0.000000
LeftFoot -6.114772 8.016180 -19.115107
LeftToeBase -6.773692 -0.000000 0.000000
RightUpLeg -37.702249 7.769505 -3.371675
RightLeg 24.999918 -0.000000 -0.000000
RightFoot -8.560406 -5.897415 15.303894
RightToeBase -4.936301 -0.000000 0.000000
